<svg xmlns="http://www.w3.org/2000/svg" width="260" height="260" viewBox="0 0 260 260">
  <g id="Group_1" data-name="Group 1" transform="translate(-255 -280)">
    <circle id="Ellipse_1" data-name="Ellipse 1" cx="130" cy="130" r="130" transform="translate(255 280)" fill="#392f53"/>
    <path id="icon-brand-recognition" d="M113.989,36.693a3.667,3.667,0,0,1,3.67,3.67V117.9h3.914a3.67,3.67,0,0,1,0,7.339H3.67a3.67,3.67,0,1,1,0-7.339H7.583V77.055a3.669,3.669,0,0,1,3.67-3.67H25.925a3.669,3.669,0,0,1,3.67,3.67v40.851h7.339V91.731a3.668,3.668,0,0,1,3.67-3.666H55.279a3.669,3.669,0,0,1,3.67,3.67v26.176h7.339V62.374a3.669,3.669,0,0,1,3.67-3.67H84.633a3.669,3.669,0,0,1,3.67,3.67V117.9h7.339V40.362a3.667,3.667,0,0,1,3.67-3.67Zm-3.67,7.339h-7.336V117.9h7.336ZM80.966,66.043H73.63V117.9h7.336V66.047ZM51.612,95.4H44.276v22.5h7.336V95.4ZM22.262,80.719H14.923V117.9h7.336V80.722ZM106.65,0a11.007,11.007,0,1,1-6.1,20.167L87.8,29.733A11,11,0,0,1,72.556,42.955L57.874,57.633a11,11,0,1,1-20.85,3.385l-10.8-5.4a10.984,10.984,0,1,1,3.288-6.563l10.8,5.4a10.968,10.968,0,0,1,12.374-2.013L67.368,37.767A11,11,0,0,1,83.4,23.862L96.149,14.3A11.021,11.021,0,0,1,106.653,0ZM47.943,58.707a3.67,3.67,0,1,0,3.67,3.67,3.672,3.672,0,0,0-3.67-3.67ZM18.592,44.029a3.67,3.67,0,1,0,3.666,3.67,3.673,3.673,0,0,0-3.666-3.67ZM77.3,29.354a3.67,3.67,0,1,0,3.666,3.67,3.673,3.673,0,0,0-3.666-3.67ZM106.653,7.339a3.668,3.668,0,1,0,3.666,3.67,3.673,3.673,0,0,0-3.666-3.67Z" transform="translate(322 347)" fill="#2bd0d0"/>
  </g>
</svg>
