<svg xmlns="http://www.w3.org/2000/svg" width="260" height="260" viewBox="0 0 260 260">
  <g id="icon3" transform="translate(-645 -280)">
    <circle id="Ellipse_1" data-name="Ellipse 1" cx="130" cy="130" r="130" transform="translate(645 280)" fill="#392f53"/>
    <path id="icon-fully-customizable" d="M141.305,18.252a2.956,2.956,0,0,0-2.81-.142L115.381,29a25.112,25.112,0,0,0-14.334,20.728l-.594,7.385L88.476,77V68.51c0-.03-.018-.052-.018-.082a2.953,2.953,0,0,0-.139-.861L82.746,50.849,94.125,28.1a2.983,2.983,0,0,0-.3-3.123L75.937,1.125a3.089,3.089,0,0,0-4.769,0L53.277,24.982A2.983,2.983,0,0,0,53,28.1L64.374,50.852,58.8,67.57a2.953,2.953,0,0,0-.143.861V80.409L40.083,52.217c-.021-.03-.061-.052-.079-.079a3.017,3.017,0,0,0-.64-.652c-.061-.039-.109-.091-.17-.127s-.067-.061-.106-.082l-10.93-6.321L23.62,38.07,17.062,28.1a2.98,2.98,0,0,0-3.477-1.17l-11.6,4.072A2.98,2.98,0,0,0,.494,35.457l8.2,12.452,4.523,6.882L14.71,67.333a1.092,1.092,0,0,0,.03.121c.012.061.027.124.045.185a2.95,2.95,0,0,0,.352.894c.021.03.021.07.042.1s44.337,67.2,44.552,67.382a14.765,14.765,0,0,0,13.8,9.511,15.261,15.261,0,0,0,3.608-.44,14.813,14.813,0,0,0,9.18-6.776L125.98,72.527l6.261-3.963a25.3,25.3,0,0,0,8.065-8.25,25.04,25.04,0,0,0,3.577-14.1l-1.161-25.528a2.983,2.983,0,0,0-1.416-2.435ZM119.713,71.381,115.1,79.042,99.776,69.8l4.62-7.661Zm-55.091,45.18V71.49H82.51v15.4ZM69.755,53.6H77.38l3.972,11.924H65.78L69.752,53.6Zm3.811-20.874a2.98,2.98,0,1,1,2.98-2.98A2.98,2.98,0,0,1,73.566,32.728Zm0-24.843,14.4,19.194L77.689,47.636H76.546v-9.49a8.944,8.944,0,1,0-5.961,0v9.49h-1.14L59.168,27.08l14.4-19.194ZM31.924,54.021l-.879.576L20.067,61.834l-1.01-8.45a2.977,2.977,0,0,0-.473-1.285L15.307,47.12l4.975-3.28,3.277,4.978a3,3,0,0,0,1,.94l7.364,4.263Zm-18.561-20.7L17,38.85l-4.978,3.28L7.552,35.363l5.812-2.037ZM29.278,62.9l7.452-4.924L58.659,91.242v32.519L21.807,67.825l7.47-4.924Zm51.95,72.311a8.944,8.944,0,1,1-15.317-9.241L88.422,88.635h.052v-.082L96.7,74.913l7.661,4.627,7.67,4.608-30.8,51.065Zm53.987-77.99a19.261,19.261,0,0,1-6.148,6.285l-5.3,3.356-8.647-5.206-8.647-5.206.491-6.261a19.155,19.155,0,0,1,10.927-15.8l19.082-8.98.379,8.307a2.95,2.95,0,0,0-.894.042l-7.222,1.789a18.148,18.148,0,0,0-13.416,13.716,2.981,2.981,0,0,0,5.818,1.3,12.224,12.224,0,0,1,9.026-9.226l6.964-1.728.312,6.858a19.112,19.112,0,0,1-2.729,10.757Z" transform="translate(703 337)" fill="#2bd0d0"/>
  </g>
</svg>
