<svg xmlns="http://www.w3.org/2000/svg" width="260" height="260" viewBox="0 0 260 260">
  <g id="icon2" transform="translate(-385 -675)">
    <circle id="Ellipse_1" data-name="Ellipse 1" cx="130" cy="130" r="130" transform="translate(385 675)" fill="#392f53"/>
    <path id="icon-detailed-records" d="M67,0A67,67,0,1,1,0,67,67.079,67.079,0,0,1,67,0ZM93.186,119.378a59.745,59.745,0,0,0-52.373,0,58,58,0,0,0,52.373,0Zm-22-110.791V20.937H62.811V8.59A58.255,58.255,0,0,0,30.963,20.856l9.388,9.385-5.922,5.922-9.69-9.69a58.415,58.415,0,0,0-15.7,32.15H25.124V67H8.375a58.522,58.522,0,0,0,24.249,47.383,67.888,67.888,0,0,1,68.75,0A58.527,58.527,0,0,0,125.625,67h-16.75V58.624h16.082a58.415,58.415,0,0,0-15.7-32.15l-9.69,9.69-5.922-5.922,9.388-9.385A58.254,58.254,0,0,0,71.189,8.586ZM63.012,36.408c1.114-3.469,6.862-3.469,7.976,0,2.131,6.637,12.764,40.112,12.764,47.343a16.751,16.751,0,0,1-33.5,0c0-7.231,10.636-40.706,12.764-47.343ZM67,51.732c-4.137,13.579-8.375,28.594-8.375,32.019a8.376,8.376,0,0,0,16.753,0c0-3.422-4.238-18.441-8.378-32.019Z" transform="translate(448 738)" fill="#2bd0d0"/>
  </g>
</svg>
